<?xml version="1.0" encoding="UTF-8" standalone="no"?>
<!DOCTYPE svg PUBLIC "-//W3C//DTD SVG 1.1//EN" "http://www.w3.org/Graphics/SVG/1.1/DTD/svg11.dtd">
<svg pointer-events="bounding-box" width="100%" height="100%" viewBox="0 0 102 109" version="1.1"
     xmlns="http://www.w3.org/2000/svg" xml:space="preserve"
     style="fill-rule:evenodd;clip-rule:evenodd;">
    <g transform="matrix(1,0,0,1,-15.8769,4.12311)">
        <path d="M20,38L35,0" style="fill:none;fill-rule:nonzero;stroke:white;stroke-width:1.07px;"/>
    </g>
    <g transform="matrix(1,0,0,1,-15.8769,4.12311)">
        <path d="M35,0L50,34" style="fill:none;fill-rule:nonzero;stroke:white;stroke-width:1.07px;"/>
    </g>
    <g transform="matrix(1,0,0,1,-15.8769,4.12311)">
        <path d="M50,34L80,34" style="fill:none;fill-rule:nonzero;stroke:white;stroke-width:1.07px;"/>
    </g>
    <g transform="matrix(1,0,0,1,-15.8769,4.12311)">
        <path d="M80,34L98,0" style="fill:none;fill-rule:nonzero;stroke:white;stroke-width:1.07px;"/>
    </g>
    <g transform="matrix(1,0,0,1,-15.8769,4.12311)">
        <path d="M98,0L113,38" style="fill:none;fill-rule:nonzero;stroke:white;stroke-width:1.07px;"/>
    </g>
    <g transform="matrix(1,0,0,1,-15.8769,4.12311)">
        <path d="M113,38L98,80" style="fill:none;fill-rule:nonzero;stroke:white;stroke-width:1.07px;"/>
    </g>
    <g transform="matrix(1,0,0,1,-15.8769,4.12311)">
        <path d="M20,38L35,80" style="fill:none;fill-rule:nonzero;stroke:white;stroke-width:1.07px;"/>
    </g>
    <g transform="matrix(1,0,0,1,-15.8769,4.12311)">
        <path d="M98,80L66,100" style="fill:none;fill-rule:nonzero;stroke:white;stroke-width:1.07px;"/>
    </g>
    <g transform="matrix(1,0,0,1,-15.8769,4.12311)">
        <path d="M35,80L66,100" style="fill:none;fill-rule:nonzero;stroke:white;stroke-width:1.07px;"/>
    </g>
    <g transform="matrix(1,0,0,1,-15.8769,4.12311)">
        <path d="M24,36L35,6" style="fill:none;fill-rule:nonzero;stroke:white;stroke-width:1.07px;"/>
    </g>
    <g transform="matrix(1,0,0,1,-15.8769,4.12311)">
        <path d="M35,6L46,34" style="fill:none;fill-rule:nonzero;stroke:white;stroke-width:1.07px;"/>
    </g>
    <g transform="matrix(1,0,0,1,-15.8769,4.12311)">
        <path d="M24,36L46,34" style="fill:none;fill-rule:nonzero;stroke:white;stroke-width:1.07px;"/>
    </g>
    <g transform="matrix(1,0,0,1,-15.8769,4.12311)">
        <path d="M84,34L98,6" style="fill:none;fill-rule:nonzero;stroke:white;stroke-width:1.07px;"/>
    </g>
    <g transform="matrix(1,0,0,1,-15.8769,4.12311)">
        <path d="M98,6L108,34" style="fill:none;fill-rule:nonzero;stroke:white;stroke-width:1.07px;"/>
    </g>
    <g transform="matrix(1,0,0,1,-15.8769,4.12311)">
        <path d="M84,34L108,34" style="fill:none;fill-rule:nonzero;stroke:white;stroke-width:1.07px;"/>
    </g>
    <g transform="matrix(1,0,0,1,-15.8769,4.12311)">
        <path d="M37,45L49,53" style="fill:none;fill-rule:nonzero;stroke:white;stroke-width:1.07px;"/>
    </g>
    <g transform="matrix(1,0,0,1,-15.8769,4.12311)">
        <path d="M37,53L49,45" style="fill:none;fill-rule:nonzero;stroke:white;stroke-width:1.07px;"/>
    </g>
    <g transform="matrix(1,0,0,1,-15.8769,4.12311)">
        <path d="M98,45L86,53" style="fill:none;fill-rule:nonzero;stroke:white;stroke-width:1.07px;"/>
    </g>
    <g transform="matrix(1,0,0,1,-15.8769,4.12311)">
        <path d="M98,53L86,45" style="fill:none;fill-rule:nonzero;stroke:white;stroke-width:1.07px;"/>
    </g>
    <g transform="matrix(1,0,0,1,-15.8769,4.12311)">
        <path d="M56,62L76,62" style="fill:none;fill-rule:nonzero;stroke:white;stroke-width:1.07px;"/>
    </g>
    <g transform="matrix(1,0,0,1,-15.8769,4.12311)">
        <path d="M56,62L66,76" style="fill:none;fill-rule:nonzero;stroke:white;stroke-width:1.07px;"/>
    </g>
    <g transform="matrix(1,0,0,1,-15.8769,4.12311)">
        <path d="M66,76L76,62" style="fill:none;fill-rule:nonzero;stroke:white;stroke-width:1.07px;"/>
    </g>
    <g transform="matrix(1,0,0,1,-15.8769,4.12311)">
        <path d="M66,76L66,82" style="fill:none;fill-rule:nonzero;stroke:white;stroke-width:1.07px;"/>
    </g>
    <g transform="matrix(1,0,0,1,-15.8769,4.12311)">
        <path d="M66,82L56,92" style="fill:none;fill-rule:nonzero;stroke:white;stroke-width:1.07px;"/>
    </g>
    <g transform="matrix(1,0,0,1,-15.8769,4.12311)">
        <path d="M66,82L76,92" style="fill:none;fill-rule:nonzero;stroke:white;stroke-width:1.07px;"/>
    </g>
    <g transform="matrix(1,0,0,1,-16.0378,-0.825994)">
        <path d="M20,75L50,79" style="fill:none;fill-rule:nonzero;stroke:white;stroke-width:1.07px;"/>
    </g>
    <g transform="matrix(0.997496,-0.0707288,0.0707288,0.997496,-21.8519,5.9436)">
        <path d="M20,75L50,79" style="fill:none;fill-rule:nonzero;stroke:white;stroke-width:1.07px;"/>
    </g>
    <g transform="matrix(0.984213,-0.176989,0.176989,0.984213,-32.8917,15.3034)">
        <path d="M20,75L50,79" style="fill:none;fill-rule:nonzero;stroke:white;stroke-width:1.07px;"/>
    </g>
    <g transform="matrix(0.924472,-0.381251,0.381251,0.924472,-41.8717,31.1217)">
        <path d="M20,75L50,79" style="fill:none;fill-rule:nonzero;stroke:white;stroke-width:1.07px;"/>
    </g>
    <g transform="matrix(-1,0,0,1,117.446,-1.13262)">
        <path d="M20,75L50,79" style="fill:none;fill-rule:nonzero;stroke:white;stroke-width:1.07px;"/>
    </g>
    <g transform="matrix(-0.997496,-0.0707288,-0.0707288,0.997496,123.26,5.63697)">
        <path d="M20,75L50,79" style="fill:none;fill-rule:nonzero;stroke:white;stroke-width:1.07px;"/>
    </g>
    <g transform="matrix(-0.984213,-0.176989,-0.176989,0.984213,134.3,14.9968)">
        <path d="M20,75L50,79" style="fill:none;fill-rule:nonzero;stroke:white;stroke-width:1.07px;"/>
    </g>
    <g transform="matrix(-0.924472,-0.381251,-0.381251,0.924472,143.28,30.8151)">
        <path d="M20,75L50,79" style="fill:none;fill-rule:nonzero;stroke:white;stroke-width:1.07px;"/>
    </g>
</svg>
