<?xml version="1.0" standalone="no"?>
<!DOCTYPE svg PUBLIC "-//W3C//DTD SVG 20010904//EN"
        "http://www.w3.org/TR/2001/REC-SVG-20010904/DTD/svg10.dtd">
<svg xmlns="http://www.w3.org/2000/svg"
     width="1024.000000pt" height="1024.000000pt" viewBox="0 0 1024.000000 1024.000000"
     preserveAspectRatio="xMidYMid meet">
    <metadata>
        Created by potrace 1.11, written by Peter Selinger 2001-2013
    </metadata>
    <g transform="translate(0.000000,1024.000000) scale(0.100000,-0.100000)"
       fill="#000000" stroke="none">
        <path d="M1977 10193 c-5 -4 -29 -8 -54 -8 l-45 0 -397 -1005 c-219 -553 -559
-1414 -756 -1914 -333 -843 -358 -909 -341 -921 17 -13 17 -14 -1 -23 -17 -10
-16 -16 15 -104 18 -51 284 -795 591 -1653 307 -858 555 -1561 552 -1563 -4
-1 -258 32 -566 73 -308 41 -562 71 -566 67 -4 -4 -9 -28 -12 -54 -6 -44 -5
-48 16 -53 12 -3 281 -39 597 -81 316 -41 578 -79 581 -82 7 -9 120 -325 117
-327 -2 -1 -307 17 -678 41 -371 23 -678 40 -683 37 -4 -2 -7 -29 -7 -59 l0
-54 33 0 c79 1 1373 -83 1378 -88 10 -11 122 -332 118 -336 -3 -4 -1785 -86
-1848 -86 -22 0 -23 -2 -19 -55 3 -30 7 -56 9 -58 2 -2 452 17 1000 42 l995
45 171 -109 c94 -61 169 -112 166 -115 -2 -2 -415 -113 -916 -246 l-912 -241
3 -28 c2 -16 9 -40 15 -55 l12 -27 955 254 c525 139 966 252 980 250 14 -2
596 -372 1293 -821 1196 -772 1269 -817 1283 -800 14 18 14 18 28 1 14 -18 97
33 1347 814 733 457 1340 834 1349 836 9 2 442 -109 963 -246 522 -138 954
-251 962 -251 13 0 35 56 35 90 0 11 -214 71 -910 255 -670 177 -906 243 -897
251 7 6 86 57 177 114 l165 103 950 -42 c523 -23 965 -42 983 -41 l32 0 0 54
0 53 -102 6 c-57 4 -474 23 -928 43 -454 20 -827 38 -829 40 -2 2 23 79 56
171 l60 168 34 3 c19 2 338 22 709 46 l675 42 -2 53 c-2 30 -4 55 -6 57 -1 2
-310 -16 -685 -39 -492 -31 -681 -39 -678 -31 3 7 28 79 57 160 29 82 55 152
58 156 3 4 263 41 576 82 314 42 584 78 601 81 l31 5 -8 51 c-5 29 -10 53 -12
56 -2 2 -258 -30 -568 -72 -310 -41 -566 -75 -570 -75 -3 0 256 735 577 1632
321 898 584 1638 584 1644 0 7 -7 15 -17 18 -15 6 -14 8 3 20 20 15 125 -256
-1095 2831 l-399 1010 -38 1 c-22 0 -46 3 -54 7 -12 5 -210 -362 -917 -1696
l-901 -1702 -1482 0 -1482 0 -744 1685 c-409 927 -747 1693 -752 1703 -4 10
-11 15 -15 10z m7058 -2020 l727 -1841 -592 -1659 c-326 -912 -593 -1659 -594
-1660 -1 -1 -398 -55 -883 -119 l-882 -118 5 -45 c3 -25 7 -51 9 -57 2 -7 295
29 851 103 466 62 849 111 851 110 2 -2 -22 -74 -53 -160 l-56 -156 -42 -5
c-22 -3 -342 -24 -711 -46 -368 -22 -703 -43 -744 -46 l-73 -7 5 -50 c4 -27 9
-52 11 -55 3 -3 342 16 753 41 410 26 748 45 751 43 2 -3 -22 -77 -53 -165
-40 -111 -62 -161 -73 -161 -34 0 -893 40 -969 45 l-83 5 0 -60 0 -60 33 0
c67 1 783 -31 816 -36 32 -5 28 -9 -118 -100 -83 -52 -155 -94 -159 -94 -5 0
-222 56 -482 125 -260 69 -478 125 -486 125 -13 0 -45 -91 -35 -101 3 -3 200
-57 438 -120 238 -63 429 -117 425 -120 -18 -17 -2544 -1589 -2552 -1589 -7 0
-2371 1518 -2437 1564 -1 1 193 52 430 115 238 63 434 115 436 117 8 7 -22
104 -32 104 -7 0 -226 -56 -488 -125 l-476 -126 -146 93 c-80 51 -143 95 -140
98 4 4 683 38 796 39 l58 1 -3 58 -3 57 -70 -3 c-38 -1 -269 -12 -513 -23
-418 -18 -444 -19 -472 -3 -24 15 -37 40 -80 162 -28 79 -50 146 -48 148 2 2
325 -17 718 -41 393 -25 734 -45 758 -45 l42 0 0 54 0 53 -72 6 c-40 4 -379
25 -753 47 -374 22 -694 43 -711 46 -30 4 -33 9 -87 161 -31 86 -55 158 -54
160 2 1 386 -48 853 -111 467 -62 850 -112 852 -111 2 2 6 27 9 57 l5 54 -883
118 c-486 64 -884 118 -885 119 0 1 -270 755 -599 1675 l-597 1674 728 1845
c465 1176 732 1840 737 1831 5 -7 334 -751 732 -1653 399 -902 728 -1639 732
-1638 5 1 16 5 26 8 13 6 17 2 17 -19 l0 -26 1520 0 1520 0 0 25 c0 23 2 25
21 14 14 -7 24 -8 28 -1 3 6 400 753 881 1661 480 908 877 1648 881 1643 4 -4
334 -836 734 -1849z"/>
        <path d="M1872 9562 c-5 -15 -256 -697 -556 -1516 -301 -819 -545 -1490 -544
-1491 2 -1 13 -8 25 -14 15 -7 23 -21 23 -36 0 -14 6 -25 13 -25 7 0 508 45
1112 100 604 55 1100 100 1102 100 2 0 3 13 3 30 0 23 5 31 26 36 18 5 23 11
19 23 -46 120 -1108 2817 -1110 2819 -2 2 -13 -2 -25 -8 -15 -8 -30 -8 -50 -1
-26 9 -29 7 -38 -17z m584 -1477 c278 -708 503 -1290 499 -1293 -6 -7 -2037
-193 -2043 -188 -2 2 227 632 509 1400 335 912 515 1392 521 1383 4 -8 235
-594 514 -1302z"/>
        <path d="M7547 8175 l-707 -1415 25 -12 c18 -8 25 -19 25 -40 l0 -28 1215 0
1215 0 0 30 c0 17 5 30 13 30 43 1 43 3 -454 1391 -270 756 -498 1393 -506
1416 -13 39 -16 41 -39 32 -16 -6 -32 -5 -44 1 -10 5 -22 10 -27 10 -4 0 -326
-637 -716 -1415z m1221 -70 c248 -693 455 -1272 461 -1287 l11 -28 -1130 0
-1130 0 658 1315 c619 1239 658 1314 668 1288 7 -15 215 -595 462 -1288z"/>
        <path d="M2136 5629 c-15 -22 -26 -45 -24 -50 2 -5 122 -88 267 -183 l264
-174 -259 -172 c-142 -95 -263 -176 -268 -181 -10 -9 1 -36 33 -78 l18 -23
286 191 c158 105 289 191 292 191 3 0 134 -86 291 -191 219 -146 289 -188 295
-177 43 64 51 81 42 87 -93 59 -523 347 -523 351 0 4 430 292 523 351 9 6 2
22 -42 88 -8 12 -66 -22 -299 -178 l-290 -193 -286 191 c-157 105 -287 191
-290 191 -2 0 -15 -18 -30 -41z"/>
        <path d="M7090 5625 l-31 -45 266 -176 c146 -98 265 -180 265 -183 0 -4 -419
-287 -522 -352 -6 -4 3 -26 22 -53 l32 -47 26 17 c15 10 145 96 289 192 l263
175 287 -191 c287 -191 288 -192 304 -170 9 12 24 33 32 47 l15 26 -264 175
c-145 96 -264 178 -264 181 0 3 119 85 265 183 l266 176 -31 45 c-17 25 -33
45 -36 45 -2 0 -132 -85 -289 -190 l-284 -190 -278 183 c-153 101 -283 186
-290 190 -7 5 -23 -9 -43 -38z"/>
        <path d="M4060 3936 c0 -14 -10 -32 -25 -43 l-24 -18 499 -699 500 -698 0
-287 0 -286 -497 -497 -497 -497 34 -36 c19 -19 39 -35 44 -35 6 0 228 217
493 482 l483 483 485 -485 485 -484 40 39 40 39 -495 496 -495 495 0 287 0
287 499 698 499 698 -24 18 c-14 11 -24 29 -24 43 l0 24 -1010 0 -1010 0 0
-24z m1892 -113 c-11 -16 -212 -296 -446 -623 -235 -327 -430 -596 -435 -598
-7 -2 -364 492 -854 1180 l-48 68 901 0 901 0 -19 -27z"/>
    </g>
</svg>
